<svg viewBox="0 0 16 16" xmlns="http://www.w3.org/2000/svg" xmlns:xlink="http://www.w3.org/1999/xlink" width="16.000000" height="16.000000" fill="none">
	<rect id="bilibili 1" width="16.000000" height="16.000000" x="0.000000" y="0.000000" />
	<path id="矢量 3" d="M3.32909 0.880865C3.48074 0.809663 3.64622 0.772749 3.81376 0.772749C3.98129 0.772749 4.14677 0.809663 4.29842 0.880865C4.51738 0.99365 4.71744 1.13985 4.89141 1.31421L7.17218 3.30989L8.80293 3.30989L11.0837 1.31421C11.2579 1.14013 11.4579 0.993964 11.6767 0.880865C11.8933 0.803509 12.1283 0.793477 12.3507 0.852086C12.5732 0.910694 12.7727 1.0352 12.9231 1.20926C13.0735 1.38332 13.1677 1.5988 13.1934 1.82739C13.1993 1.96461 13.1804 2.10177 13.1376 2.23227C13.0947 2.36276 13.0286 2.48444 12.9425 2.59145C12.7835 2.75229 12.616 2.90456 12.4408 3.0476C12.3399 3.14162 12.2333 3.22922 12.1215 3.30989L13.5469 3.30989C13.8619 3.32002 14.1719 3.39165 14.4594 3.52073C14.7469 3.64982 15.0064 3.83387 15.2233 4.06254C15.4536 4.27885 15.6394 4.538 15.7704 4.82547C15.9015 5.11294 15.9751 5.42321 15.9874 5.7389L15.9874 12.2961C16.0041 12.6279 15.985 12.9605 15.9303 13.2882C15.856 13.6168 15.7169 13.9273 15.5211 14.2015C15.3253 14.4756 15.0767 14.7079 14.79 14.8848C14.396 15.1278 13.9413 15.2543 13.4785 15.2497L3.00977 15.2497C2.66661 15.2672 2.32255 15.2481 1.98344 15.1927C1.6587 15.1162 1.35237 14.976 1.08223 14.7803C0.812081 14.5845 0.583489 14.3371 0.409709 14.0523C0.158115 13.661 0.0235849 13.206 0.0219676 12.7408L0.0219676 6.25207C-0.00732253 5.93725 -0.00732253 5.62038 0.0219676 5.30555C0.0908949 4.94593 0.237704 4.60577 0.452087 4.30892C0.666471 4.01208 0.943233 3.76577 1.26294 3.58727C1.58265 3.40877 1.93756 3.30242 2.30274 3.27568L3.79665 3.27568C3.55716 3.10462 3.35189 2.89934 3.13522 2.71688C3.00709 2.59918 2.90759 2.45372 2.84434 2.29164C2.78109 2.12955 2.75576 1.95515 2.7703 1.78177C2.78354 1.59758 2.84131 1.41936 2.93864 1.26244C3.03598 1.10551 3.16997 0.974566 3.32909 0.880865M3.06679 5.30555C2.85433 5.34317 2.6569 5.44028 2.49743 5.58562C2.33796 5.73096 2.22299 5.91856 2.16588 6.12663C2.14545 6.27035 2.14545 6.41625 2.16588 6.55997L2.16588 11.954C2.15776 12.1199 2.18598 12.2856 2.24858 12.4394C2.31117 12.5933 2.40662 12.7316 2.52825 12.8448C2.64988 12.9579 2.79475 13.0431 2.95274 13.0944C3.11065 13.148 3.27636 13.1749 3.4431 13.1742L12.7144 13.1742C12.9415 13.1827 13.1659 13.1233 13.3589 13.0034C13.552 12.8835 13.7048 12.7087 13.7978 12.5014C13.8959 12.2634 13.9351 12.0051 13.9118 11.7487L13.9118 6.73104C13.938 6.54952 13.938 6.36517 13.9118 6.18365C13.8614 6.00351 13.7673 5.83855 13.6381 5.70332C13.5088 5.56808 13.3483 5.46673 13.1706 5.40818C12.9439 5.32801 12.7037 5.29314 12.4635 5.30555L3.60276 5.30555C3.42433 5.29297 3.24522 5.29297 3.06679 5.30555Z" fill="rgb(32,176,227)" fill-rule="nonzero" />
	<path id="矢量 4" d="M4.93703 7.08456C5.07874 7.0774 5.22054 7.09675 5.35515 7.14162C5.48976 7.18649 5.61481 7.25608 5.72389 7.34683C5.84618 7.45138 5.94497 7.58062 6.01376 7.72607C6.08255 7.87151 6.11979 8.02986 6.12302 8.19072L6.12302 9.3311C6.1281 9.46128 6.11084 9.59137 6.07198 9.71571C6.03312 9.84006 5.97324 9.95683 5.89494 10.061C5.77923 10.2045 5.63044 10.3178 5.46133 10.3912C5.29223 10.4646 5.10784 10.4959 4.92398 10.4825C4.74012 10.469 4.56225 10.4112 4.40564 10.314C4.24902 10.2167 4.11831 10.0829 4.02471 9.92411C3.90612 9.68377 3.85489 9.41578 3.87648 9.14864L3.87648 8.00826C3.90175 7.845 3.96219 7.68919 4.05362 7.55159C4.14505 7.414 4.26529 7.29791 4.406 7.21136C4.54672 7.12482 4.70456 7.06988 4.8686 7.05034L4.93703 7.08456ZM10.8328 7.08456C11.0343 7.07008 11.236 7.10939 11.4173 7.19846C11.5987 7.28754 11.7531 7.42318 11.8648 7.59151C11.9764 7.75985 12.0414 7.95483 12.053 8.15651L12.053 9.29689C12.0714 9.55915 12.0119 9.821 11.882 10.0496C11.7772 10.2024 11.6368 10.3275 11.4729 10.4139C11.309 10.5003 11.1265 10.5455 10.9411 10.5455C10.7558 10.5455 10.5733 10.5003 10.4094 10.4139C10.2454 10.3275 10.105 10.2024 10.0003 10.0496C9.85643 9.80534 9.79263 9.52221 9.81786 9.23988L9.81786 8.09949C9.83693 7.9308 9.89342 7.7685 9.9832 7.62442C10.073 7.48035 10.1938 7.35814 10.3368 7.26671C10.4799 7.17528 10.6415 7.11694 10.81 7.09595L10.8328 7.08456Z" fill="rgb(32,176,227)" fill-rule="nonzero" />
</svg>
