<svg viewBox="0 0 24 24" xmlns="http://www.w3.org/2000/svg" width="24" height="24" fill="none">
  <!-- Transparent background circle - color controlled by CSS/context -->
  <path d="M17.796 11.012c-1.146 0-2.19-.36-3.078-.972V14.256c0 2.448-1.896 4.44-4.224 4.44S6.27 16.704 6.27 14.256 8.166 9.816 10.494 9.816c.234 0 .462.018.684.054V12.42a1.848 1.848 0 0 0-.69-.132c-1.044 0-1.89.888-1.89 1.968s.846 1.968 1.89 1.968c1.044 0 1.89-.888 1.89-1.968V4.74h2.352c0 1.836 1.398 3.318 3.066 3.318v2.472l-.012.48h.012Z" fill="currentColor"/>
</svg>
