<svg viewBox="0 0 16 16" xmlns="http://www.w3.org/2000/svg" xmlns:xlink="http://www.w3.org/1999/xlink" width="16.000000" height="16.000000" fill="none">
	<rect id="instagram 1" width="16.000000" height="16.000000" x="0.000000" y="0.000000" />
	<path id="矢量 8" d="M8.00001 4.7953C6.22658 4.7953 4.79533 6.22655 4.79533 7.99999C4.79533 9.77343 6.22658 11.2047 8.00001 11.2047C9.77345 11.2047 11.2047 9.77343 11.2047 7.99999C11.2047 6.22655 9.77345 4.7953 8.00001 4.7953ZM8.00001 10.0828C6.85314 10.0828 5.9172 9.14686 5.9172 7.99999C5.9172 6.85311 6.85314 5.91718 8.00001 5.91718C9.14689 5.91718 10.0828 6.85311 10.0828 7.99999C10.0828 9.14686 9.14689 10.0828 8.00001 10.0828ZM11.336 3.91718C10.9219 3.91718 10.5875 4.25155 10.5875 4.66561C10.5875 5.07968 10.9219 5.41405 11.336 5.41405C11.75 5.41405 12.0844 5.08124 12.0844 4.66561C12.0828 4.24999 11.75 3.91718 11.336 3.91718L11.336 3.91718ZM14.2469 7.99999C14.2469 7.13749 14.2547 6.2828 14.2063 5.42186C14.1578 4.42186 13.9297 3.53436 13.1985 2.80311C12.4656 2.0703 11.5797 1.84374 10.5797 1.7953C9.7172 1.74686 8.86251 1.75468 8.00158 1.75468C7.13908 1.75468 6.28439 1.74686 5.42345 1.7953C4.42345 1.84374 3.53595 2.07186 2.8047 2.80311C2.07189 3.53593 1.84533 4.42186 1.79689 5.42186C1.74845 6.28436 1.75626 7.13905 1.75626 7.99999C1.75626 8.86093 1.74845 9.71718 1.79689 10.5781C1.84533 11.5781 2.07345 12.4656 2.8047 13.1969C3.53751 13.9297 4.42345 14.1562 5.42345 14.2047C6.28595 14.2531 7.14064 14.2453 8.00158 14.2453C8.86408 14.2453 9.71876 14.2531 10.5797 14.2047C11.5797 14.1562 12.4672 13.9281 13.1985 13.1969C13.9313 12.4641 14.1578 11.5781 14.2063 10.5781C14.2563 9.71718 14.2469 8.86249 14.2469 7.99999L14.2469 7.99999ZM12.8719 11.6844C12.7578 11.9687 12.6203 12.1812 12.4 12.4C12.1797 12.6203 11.9688 12.7578 11.6844 12.8719C10.8625 13.1984 8.91095 13.125 8.00001 13.125C7.08908 13.125 5.13595 13.1984 4.31408 12.8734C4.0297 12.7594 3.8172 12.6219 3.59845 12.4016C3.37814 12.1812 3.24064 11.9703 3.12658 11.6859C2.80158 10.8625 2.87501 8.91093 2.87501 7.99999C2.87501 7.08905 2.80158 5.13593 3.12658 4.31405C3.24064 4.02968 3.37814 3.81718 3.59845 3.59843C3.81876 3.37968 4.0297 3.24061 4.31408 3.12655C5.13595 2.80155 7.08908 2.87499 8.00001 2.87499C8.91095 2.87499 10.8641 2.80155 11.686 3.12655C11.9703 3.24061 12.1828 3.37811 12.4016 3.59843C12.6219 3.81874 12.7594 4.02968 12.8735 4.31405C13.1985 5.13593 13.125 7.08905 13.125 7.99999C13.125 8.91093 13.1985 10.8625 12.8719 11.6844Z" fill="rgb(0,0,0)" fill-rule="nonzero" />
</svg>
