<svg viewBox="0 0 16 16" xmlns="http://www.w3.org/2000/svg" xmlns:xlink="http://www.w3.org/1999/xlink" width="16.000000" height="16.000000" fill="none">
	<rect id="微信公众号 1" width="16.000000" height="16.000000" x="0.000000" y="0.000000" />
	<path id="矢量 12" d="M12.0213 4.33068C11.3813 3.01868 9.77066 1.89868 7.94666 1.89868C6.98666 1.89868 5.52533 2.22935 4.43199 3.55202C3.70133 4.43735 3.45599 5.46668 3.61066 6.50135C3.71733 7.21068 4.11199 8.14402 4.67733 8.73602C4.89066 7.23735 5.67999 6.05868 6.71466 5.19468C8.57599 3.76002 10.5707 3.84002 12.0213 4.33068L12.0213 4.33068Z" opacity="0.699999988" fill="rgb(252,162,53)" fill-rule="nonzero" />
	<path id="矢量 13" d="M13.4773 6.57599C12.336 5.09333 10.3573 4.67733 8.576 5.33866C8.63467 5.35466 8.69334 5.37066 8.74667 5.39199C11.3867 6.29333 12.816 9.15733 11.936 11.7867C11.7013 12.4853 11.328 13.0987 10.8533 13.6053C11.424 13.4453 12.0053 13.2213 12.5013 12.8373C14.5173 11.296 14.912 8.43733 13.4773 6.57599L13.4773 6.57599Z" opacity="0.699999988" fill="rgb(252,162,53)" fill-rule="nonzero" />
	<path id="矢量 14" d="M7.94133 11.3173C7.54133 11.3173 7.152 11.2693 6.77867 11.1893C6.73067 11.1787 6.688 11.1733 6.63467 11.1787C6.52267 11.184 6.42667 11.2213 6.33067 11.28L5.09867 12.0693C5.06667 12.0907 5.02933 12.1067 4.98667 12.112C4.88 12.1173 4.78933 12.032 4.784 11.9253C4.784 11.8773 4.8 11.8293 4.81067 11.7813C4.816 11.7547 4.94933 11.1627 5.02933 10.7893C5.04 10.7467 5.04533 10.7093 5.04533 10.6667C5.04 10.5387 4.97067 10.4267 4.87467 10.3627C3.57333 9.47733 2.68267 8.08533 2.49067 6.65067C2.16533 7.16267 1.98933 7.57333 1.81867 8.16533C1.184 10.384 2.576 13.0453 4.84267 13.792C7.45067 14.6507 9.94133 13.6853 10.8 11.4667C10.9067 11.1947 11.0187 10.7413 11.04 10.3573C10.128 11.0293 9.16267 11.3173 7.94133 11.3173L7.94133 11.3173Z" opacity="0.699999988" fill="rgb(252,162,53)" fill-rule="nonzero" />
	<path id="矢量 15" d="M7.94133 11.3173C7.54133 11.3173 7.152 11.2693 6.77867 11.1893C6.73067 11.1787 6.688 11.1733 6.63467 11.1787C6.52267 11.184 6.42667 11.2213 6.33067 11.28L5.09867 12.0693C5.06667 12.0907 5.02933 12.1067 4.98667 12.112C4.88 12.1173 4.78933 12.032 4.784 11.9253C4.784 11.8773 4.8 11.8293 4.81067 11.7813C4.816 11.7547 4.94933 11.1627 5.02933 10.7893C5.04 10.7467 5.04533 10.7093 5.04533 10.6667C5.04 10.5387 4.97067 10.4267 4.87467 10.3627C3.57333 9.47733 2.68267 8.08533 2.49067 6.65067C2.16533 7.16267 1.98933 7.57333 1.81867 8.16533C1.184 10.384 2.576 13.0453 4.84267 13.792C7.45067 14.6507 9.94133 13.6853 10.8 11.4667C10.9067 11.1947 11.0187 10.7413 11.04 10.3573C10.128 11.0293 9.16267 11.3173 7.94133 11.3173L7.94133 11.3173Z" opacity="0.699999988" fill="rgb(252,162,53)" fill-rule="nonzero" />
</svg>
