<svg viewBox="0 0 16 16" xmlns="http://www.w3.org/2000/svg" xmlns:xlink="http://www.w3.org/1999/xlink" width="16.000000" height="16.000000" fill="none">
	<rect id="小红书 1" width="16.000000" height="16.000000" x="0.000000" y="0.000000" />
	<path id="矢量 1" d="M11.3518 7.14768C11.2471 7.14648 11.1425 7.14768 11.0393 7.14648C11.0022 7.14648 10.9917 7.16304 10.9917 7.19696C10.9929 7.2768 10.9929 7.35528 10.9929 7.43496L10.9929 7.43512C10.994 7.51136 10.9929 7.58752 10.994 7.66264C10.994 7.72368 11.0046 7.7356 11.0637 7.7356C11.1753 7.7368 11.2867 7.7356 11.3983 7.7368C11.4401 7.7368 11.4565 7.7168 11.4553 7.67808C11.454 7.53488 11.454 7.39184 11.4529 7.24864C11.4521 7.23114 11.447 7.2141 11.438 7.19905C11.4291 7.18401 11.4165 7.17144 11.4014 7.16247C11.3864 7.1535 11.3693 7.14842 11.3518 7.14768Z" fill="rgb(255,46,77)" fill-rule="nonzero" />
	<path id="矢量 2" d="M13.28 0.8L2.71999 0.8C1.65959 0.8 0.799988 1.6596 0.799988 2.72L0.799988 13.28C0.799988 14.3404 1.65959 15.2 2.71999 15.2L13.28 15.2C14.3404 15.2 15.2 14.3404 15.2 13.28L15.2 2.72C15.2 1.6596 14.3404 0.8 13.28 0.8L13.28 0.8ZM3.91855 7.90208C3.90703 8.0676 3.89647 8.23416 3.87783 8.39968C3.84519 8.68704 3.78031 8.96632 3.64903 9.22568C3.61527 9.29016 3.56879 9.34752 3.52119 9.42032C3.49223 9.35928 3.46783 9.31128 3.44575 9.262C3.36771 9.08761 3.29066 8.91279 3.21463 8.73752C3.20639 8.71872 3.20063 8.69184 3.20887 8.67536C3.25879 8.56864 3.26223 8.45472 3.26911 8.34088C3.27855 8.19776 3.29023 8.05584 3.30063 7.9128C3.30871 7.80336 3.31327 7.6944 3.32247 7.58528C3.33303 7.45864 3.34583 7.33192 3.35623 7.2064C3.35855 7.17568 3.37255 7.1664 3.40039 7.1664C3.57359 7.1664 3.74535 7.1664 3.91855 7.16528C3.95559 7.16528 3.96615 7.18064 3.96383 7.21576C3.94871 7.4444 3.93471 7.67328 3.91855 7.90208ZM5.03247 9.26656C5.02095 9.4144 4.95223 9.53992 4.83607 9.63376C4.75119 9.70176 4.65255 9.73 4.54447 9.7288C4.45271 9.7288 4.36215 9.7276 4.27039 9.7288C4.23911 9.7288 4.21927 9.71936 4.20647 9.68888C4.15311 9.56928 4.09855 9.44944 4.04519 9.32992C4.03695 9.31224 4.03463 9.29344 4.02751 9.27592C4.00199 9.21144 4.00311 9.20896 4.07399 9.20776L4.29127 9.20776C4.38423 9.20776 4.42375 9.1692 4.42487 9.07392C4.42599 9.00248 4.42599 8.93096 4.42599 8.85928L4.42599 7.7224C4.42831 7.72488 4.42943 7.72488 4.43063 7.72488L4.43063 6.38496C4.43063 6.318 4.43295 6.31568 4.49919 6.31568L4.95567 6.31568C5.03591 6.31568 5.03703 6.318 5.03703 6.40016C5.03703 6.82496 5.03703 7.2496 5.03823 7.67328C5.03943 8.04632 5.04287 8.41952 5.04287 8.79248C5.04287 8.95096 5.04519 9.10912 5.03247 9.26656L5.03247 9.26656ZM6.21351 8.81488C6.13559 8.99552 6.05415 9.17384 5.97415 9.35328C5.96703 9.37104 5.95551 9.38856 5.93695 9.4224L5.93695 9.42256C5.89047 9.35216 5.84175 9.29472 5.81023 9.22888C5.76607 9.13296 5.73943 9.02832 5.69527 8.93208C5.64767 8.82768 5.63031 8.7152 5.60815 8.6048C5.58975 8.51072 5.58623 8.41336 5.57935 8.3184C5.56055 8.07784 5.54439 7.83736 5.52559 7.59816C5.51546 7.46704 5.50466 7.33597 5.49319 7.20496C5.49087 7.18152 5.49679 7.17096 5.52351 7.17096C5.70359 7.17096 5.88247 7.16864 6.06255 7.16752C6.09615 7.16752 6.11015 7.18264 6.11127 7.21432C6.11591 7.28704 6.11935 7.35984 6.12511 7.43264C6.12975 7.49256 6.13663 7.55224 6.14143 7.61096C6.14951 7.69544 6.15775 7.77992 6.16351 7.8632C6.17159 7.97112 6.17159 8.07912 6.18671 8.18568C6.20767 8.34888 6.19135 8.51544 6.24815 8.6752C6.26207 8.71272 6.23303 8.77032 6.21351 8.81488L6.21351 8.81488ZM7.53039 9.15888C7.48511 9.26328 7.43631 9.36536 7.38991 9.46864C7.36423 9.5272 7.33999 9.58576 7.31543 9.64448C7.28647 9.71496 7.26671 9.72896 7.19239 9.72896L6.84399 9.72896C6.72647 9.72896 6.60919 9.73264 6.49191 9.72776C6.43623 9.72552 6.38151 9.70784 6.32583 9.69608C6.29783 9.69032 6.29207 9.67384 6.30375 9.64696C6.37446 9.49511 6.44452 9.34294 6.51391 9.19048C6.53023 9.15536 6.54287 9.11776 6.56151 9.08256C6.56615 9.07296 6.58359 9.06256 6.59279 9.06488C6.78687 9.11416 6.98551 9.10824 7.18287 9.106C7.28743 9.1048 7.39199 9.1048 7.49655 9.106C7.54647 9.10608 7.55127 9.11312 7.53039 9.15888L7.53039 9.15888ZM7.59039 8.8172C7.58483 8.82332 7.57824 8.82841 7.57091 8.83223C7.56358 8.83605 7.55563 8.83855 7.54743 8.8396C7.33031 8.8408 7.11183 8.84192 6.89471 8.8384C6.82847 8.83704 6.76111 8.82192 6.71119 8.77144C6.65879 8.71864 6.63327 8.6564 6.65991 8.58488C6.70801 8.45862 6.75794 8.33306 6.80967 8.20824C6.87031 8.0652 6.93175 7.922 6.99799 7.76704C6.96191 7.76472 6.93999 7.7624 6.91911 7.7624C6.85519 7.76128 6.79127 7.76704 6.72735 7.7588C6.65767 7.75072 6.58687 7.74248 6.53231 7.68392C6.47879 7.62632 6.47063 7.55824 6.49159 7.49136C6.52519 7.38464 6.56935 7.28136 6.61351 7.17808C6.65535 7.08192 6.70295 6.98808 6.74599 6.89304C6.79247 6.79088 6.83767 6.6888 6.88303 6.58664C6.92352 6.49662 6.96339 6.40633 7.00263 6.31576C7.01415 6.28752 7.03183 6.27704 7.06311 6.27704C7.23399 6.27816 7.40575 6.27704 7.57663 6.27704C7.63343 6.27704 7.63463 6.2828 7.61255 6.33464C7.51391 6.56328 7.41383 6.79096 7.31631 7.01976C7.30456 7.04349 7.2982 7.06952 7.29767 7.096C7.30111 7.15704 7.31399 7.1664 7.37679 7.1664C7.50447 7.1676 7.63231 7.1664 7.75879 7.1664C7.78455 7.1664 7.81119 7.16984 7.83671 7.17104C7.87279 7.17224 7.87743 7.1876 7.86223 7.21904C7.7915 7.37074 7.72177 7.52291 7.65303 7.67552C7.60559 7.7836 7.56031 7.89264 7.51383 8.00072C7.48205 8.0728 7.44992 8.14472 7.41743 8.21648C7.38711 8.28216 7.40799 8.31512 7.48231 8.31632C7.57639 8.31632 7.67047 8.31752 7.76447 8.31632C7.79711 8.31632 7.81343 8.32576 7.79711 8.36088C7.74031 8.48984 7.68439 8.62 7.62759 8.7492C7.61711 8.77264 7.60559 8.7972 7.59039 8.8172ZM9.69687 9.73496L7.73847 9.73496C7.71159 9.73152 7.68399 9.73152 7.64559 9.73152L7.64559 9.73128C7.65935 9.6904 7.66767 9.66224 7.67919 9.63648C7.75255 9.4756 7.82679 9.31608 7.89879 9.15536C7.91511 9.11888 7.93831 9.10968 7.97311 9.10968L8.42151 9.10968C8.49255 9.10968 8.49583 9.10608 8.49583 9.0356L8.49583 7.21344C8.49583 7.15128 8.49463 7.15008 8.43207 7.15008C8.33671 7.15008 8.24039 7.14888 8.14511 7.15008C8.10903 7.15008 8.09399 7.142 8.09399 7.10088C8.09631 6.92944 8.09519 6.75824 8.09519 6.58704C8.09519 6.526 8.09639 6.526 8.15551 6.526L9.29615 6.526C9.36239 6.526 9.42975 6.5272 9.49599 6.526C9.52751 6.526 9.54015 6.53888 9.53895 6.57056C9.53775 6.74888 9.53775 6.9272 9.53775 7.10672C9.53775 7.1384 9.52623 7.15008 9.49359 7.15008C9.39039 7.14888 9.28823 7.1512 9.18455 7.1512C9.14871 7.1512 9.13239 7.16776 9.13239 7.20536C9.13359 7.49272 9.13463 7.77896 9.13463 8.06648C9.13463 8.39264 9.13463 8.7188 9.13583 9.04608C9.13583 9.1048 9.14159 9.11192 9.20111 9.11192L9.69231 9.11192C9.74567 9.11192 9.75279 9.11768 9.75383 9.1716C9.75519 9.34304 9.75383 9.51424 9.75519 9.68552C9.75503 9.73032 9.73063 9.73496 9.69687 9.73496ZM12.8015 9.1892C12.7992 9.44504 12.6295 9.64568 12.3892 9.70312C12.3217 9.7196 12.2519 9.72424 12.1822 9.72672C12.0755 9.73016 11.9674 9.72784 11.8605 9.72784C11.7943 9.72784 11.7758 9.7148 11.7513 9.65496C11.6992 9.53072 11.6446 9.4064 11.591 9.28192L11.5807 9.25736C11.5621 9.20936 11.568 9.20088 11.619 9.20088C11.7665 9.19976 11.9152 9.20336 12.0626 9.19632C12.1509 9.19168 12.1881 9.15168 12.1905 9.06128C12.194 8.88872 12.1859 8.71632 12.1882 8.54392C12.1894 8.45816 12.0813 8.36544 12.0047 8.3608C11.9904 8.35945 11.9761 8.3587 11.9617 8.35856C11.669 8.35856 11.3751 8.35856 11.0825 8.35968C11.0001 8.35968 10.9942 8.368 10.9942 8.45128L10.9975 9.66312C10.9975 9.72784 10.9963 9.72896 10.9313 9.72896L10.4434 9.72896C10.3807 9.72896 10.3762 9.72416 10.3762 9.662L10.3762 9.03792C10.3772 9.04016 10.3783 9.04016 10.3795 9.04016L10.3795 8.3996C10.3795 8.35616 10.3505 8.35368 10.3204 8.35368C10.1611 8.35504 10.0009 8.35856 9.84191 8.35856C9.73375 8.35856 9.74535 8.37136 9.74415 8.25872C9.74295 8.104 9.74415 7.94776 9.74415 7.79304C9.74415 7.7368 9.74991 7.72968 9.80583 7.72848C9.97303 7.72736 10.1392 7.72848 10.3065 7.72736C10.3704 7.72736 10.3738 7.72488 10.3749 7.66152C10.3761 7.5068 10.3737 7.35192 10.3749 7.19696C10.3749 7.15816 10.3586 7.14648 10.3216 7.14648C10.2146 7.14768 10.1065 7.14536 9.99967 7.14648C9.96607 7.14648 9.95438 7.1348 9.95438 7.1008C9.95582 6.92472 9.95582 6.74984 9.95342 6.57384C9.95342 6.5316 9.96958 6.5224 10.0068 6.5224C10.1054 6.5236 10.2044 6.5224 10.303 6.5224C10.3692 6.5224 10.3727 6.5176 10.3738 6.44832C10.3738 6.40744 10.3761 6.3664 10.3738 6.32528C10.3727 6.28648 10.3901 6.27592 10.4261 6.27592C10.5679 6.27712 10.7108 6.27712 10.8524 6.27712L10.9301 6.27712C10.9918 6.27712 10.9929 6.27712 10.9953 6.34048C10.9964 6.37808 10.9929 6.41672 10.994 6.45432C10.9952 6.50712 11.0092 6.52112 11.0614 6.52248C11.1497 6.52368 11.2381 6.52368 11.3274 6.52368C11.5562 6.5248 11.755 6.60336 11.9058 6.77824C11.9895 6.87552 12.0417 6.99416 12.0498 7.12432C12.0581 7.2568 12.0523 7.39056 12.0546 7.5232C12.0546 7.57256 12.0581 7.62304 12.0604 7.67216C12.0626 7.72152 12.0744 7.73432 12.1243 7.7332C12.2257 7.7296 12.3268 7.74639 12.4217 7.78256C12.6249 7.86128 12.7503 8.00424 12.791 8.22024C12.7989 8.26317 12.8028 8.30675 12.8025 8.3504C12.8038 8.62992 12.8036 8.90952 12.8015 9.1892L12.8015 9.1892ZM12.6585 7.088C12.5656 7.14904 12.4681 7.14672 12.3553 7.1456C12.3203 7.1456 12.274 7.14672 12.2287 7.1444C12.2171 7.14328 12.1973 7.12904 12.1961 7.1196C12.1857 6.98136 12.1684 6.8416 12.2172 6.70784C12.2602 6.58944 12.3669 6.52008 12.4925 6.51784C12.5375 6.51752 12.582 6.52692 12.623 6.54539C12.664 6.56387 12.7006 6.59099 12.7302 6.62489C12.7597 6.6588 12.7816 6.69869 12.7944 6.74184C12.8305 6.87104 12.7701 7.01408 12.6585 7.088Z" fill="rgb(255,46,77)" fill-rule="nonzero" />
</svg>
