<svg viewBox="0 0 16 16" xmlns="http://www.w3.org/2000/svg" xmlns:xlink="http://www.w3.org/1999/xlink" width="16.000000" height="16.000000" fill="none">
	<rect id="youtube 1" width="16.000000" height="16.000000" x="0.000000" y="0.000000" />
	<path id="矢量 7" d="M6.66667 10.6667L6.66667 6.00002L10.6667 8.34135L6.66667 10.6667ZM15.84 5.11135C15.84 5.11135 15.6833 4.00135 15.204 3.51202C14.5953 2.87002 13.9133 2.86735 13.6007 2.83002C11.362 2.66669 8.00333 2.66669 8.00333 2.66669L7.99667 2.66669C7.99667 2.66669 4.638 2.66669 2.39933 2.83002C2.086 2.86735 1.40467 2.87002 0.795333 3.51202C0.316 4.00135 0.16 5.11202 0.16 5.11202C0.16 5.11202 0 6.41469 0 7.71802L0 8.94135C0 10.2454 0.16 11.5494 0.16 11.5494C0.16 11.5494 0.316 12.6594 0.795333 13.1487C1.40467 13.7907 2.204 13.77 2.56 13.8374C3.84 13.962 8 14 8 14C8 14 11.362 13.9947 13.6007 13.832C13.914 13.794 14.5953 13.7914 15.204 13.1494C15.684 12.66 15.84 11.5494 15.84 11.5494C15.84 11.5494 16 10.246 16 8.94202L16 7.71935C16 6.41535 15.84 5.11135 15.84 5.11135L15.84 5.11135Z" fill="rgb(255,0,0)" fill-rule="nonzero" />
</svg>
